<svg width="32" height="32" viewBox="0 0 32 32" fill="none" xmlns="http://www.w3.org/2000/svg">
<circle cx="16" cy="16" r="15.5" stroke="#5B5F62"/>
<path d="M16.8946 16.2982H16.3946V16.7982V21.5L15.2735 21.5V16.7982V16.2982H14.7735H13.5V15.076H14.7735H15.2735V14.576V12.9373C15.2735 12.079 15.5146 11.4787 15.8715 11.097C16.2254 10.7186 16.7443 10.5 17.4152 10.5C17.835 10.5 18.2188 10.5196 18.5 10.5406V11.5752L17.9124 11.5755C17.9124 11.5755 17.9123 11.5755 17.9122 11.5755C17.4076 11.5756 16.9702 11.7069 16.6891 12.0681C16.4315 12.3991 16.3945 12.819 16.3945 13.1573V14.576V15.076H16.8945H18.3653L18.2196 16.2982H16.8946Z" fill="#5B5F62" stroke="#5B5F62"/>
</svg>
